/* XPM */
static char * LOGO_small_xpm[] = {
"11 16 26 1",
" 	c None",
".	c #1772F0",
"+	c #1972EF",
"@	c #2C72EF",
"#	c #2D72F1",
"$	c #2C72F0",
"%	c #2D72F0",
"&	c #2C73F1",
"*	c #2E73EF",
"=	c #97ABD4",
"-	c #95ADD3",
";	c #2F74F1",
">	c #4D84E7",
",	c #B2BBCD",
"'	c #B1BACC",
")	c #B2BCCB",
"!	c #B1BBCC",
"~	c #B4BCCC",
"{	c #2377ED",
"]	c #B2BBCC",
"^	c #B3BCCD",
"/	c #B1BCCD",
"(	c #3681EA",
"_	c #B3BBCB",
":	c #B3BBCC",
"<	c #B2BBCB",
"           ",
"     .     ",
"     +     ",
"    @#@    ",
"   $   %   ",
"   &   &   ",
"   *= -;   ",
"    > >    ",
"   ,   '   ",
"   )   !   ",
"  ~  {  !  ",
" ]^/](]_:] ",
"  ]     <  ",
" !       ) ",
" ]       ] ",
"           "};
