<?xml version="1.0" encoding="UTF-8" standalone="no"?>
<svg
   viewBox="0 0 50 50"
   width="50px"
   height="50px"
   version="1.1"
   id="svg1"
   xmlns="http://www.w3.org/2000/svg"
   xmlns:svg="http://www.w3.org/2000/svg">
  <defs
     id="defs1" />
  <path
     stroke="currentColor"
     stroke-linejoin="round"
     stroke-width="5.28228"
     d="m 18.97812,13.750548 v 7.923414 c 0,1.45866 -1.182478,2.641137 -2.641138,2.641137 H 8.4135671 M 35.466086,36.879651 h 5.282275 c 1.45866,0 2.641137,-1.182478 2.641137,-2.641138 V 7.8271333 c 0,-1.4586597 -1.182477,-2.6411376 -2.641137,-2.6411376 H 22.260395 c -1.45866,4e-7 -2.641137,1.1824779 -2.641137,2.6411376 v 2.6411397 m 12.564551,5.923414 v 26.411378 c 0,1.45866 -1.182477,2.641137 -2.641137,2.641137 H 11.054707 c -1.4586613,1e-6 -2.6411395,-1.182477 -2.6411399,-2.641137 V 23.971751 c -4.84e-5,-0.6295 0.2247459,-1.238319 0.6338726,-1.716739 L 15.54464,14.674946 c 0.501824,-0.586697 1.23523,-0.924449 2.007266,-0.924398 h 11.990766 c 1.45866,0 2.641138,1.182479 2.641137,2.641139 z"
     id="path1"
     style="fill:none;fill-opacity:1;stroke-width:2;stroke-dasharray:none;stroke:#353e48;stroke-opacity:1" />
  <path
     stroke="currentColor"
     stroke-linecap="round"
     stroke-linejoin="round"
     stroke-width="2"
     d="m 22.462454,30.850458 a 3.391,3.391 0 0 0 -4.795,0 l -3.425,3.426 a 3.3902235,3.3902235 0 0 0 4.795,4.794 l 0.321,-0.304 m -0.321,-4.49 a 3.39,3.39 0 0 0 4.795,0 l 3.424,-3.426 a 3.3902235,3.3902235 0 0 0 -4.794,-4.795 l -1.028,0.961"
     id="path1-7"
     style="fill:none;fill-opacity:1;stroke:#1872f0;stroke-opacity:1" />
</svg>
