<?xml version="1.0" encoding="UTF-8" standalone="no"?>
<svg
   viewBox="0 0 50 50"
   width="50px"
   height="50px"
   version="1.1"
   id="svg1"
   xml:space="preserve"
   xmlns="http://www.w3.org/2000/svg"
   xmlns:svg="http://www.w3.org/2000/svg"><defs
     id="defs1" /><g
     style="clip-rule:evenodd;fill:#353e48;fill-opacity:1;fill-rule:evenodd;stroke:none;stroke-opacity:1;image-rendering:optimizeQuality;shape-rendering:geometricPrecision;text-rendering:geometricPrecision"
     id="g2"
     transform="matrix(0.01979174,0,0,0.01979174,12.201824,30.55189)"><path
       fill-rule="nonzero"
       d="M 0.041,102.171 C 0.022,97.468 2.899,93.034 7.564,91.296 L 249.424,0.729 a 11.513,11.513 0 0 1 8.144,0.031 l 241.001,92.419 c 5.001,2.4 7.431,6.732 7.431,11.726 l -0.259,310.616 c 0,5.047 -3.238,9.339 -7.751,10.912 l -238.822,83.986 c -4.718,1.674 -7.93,1.476 -11.952,-0.096 L 7.564,420.501 C 2.915,418.77 0.041,414.36 0.041,409.673 H 0 V 103.142 Z m 482.84,18.697 -217.827,84.183 V 483.838 L 482.643,407.326 Z M 253.363,23.928 42.776,102.785 254.308,184.42 462.243,104.06 Z M 241.86,483.64 V 204.394 L 23.194,120.007 v 281.675 z"
       id="path1"
       style="fill:#353e48;fill-opacity:1;stroke:none;stroke-opacity:1" /></g><text
     xml:space="preserve"
     style="font-size:88.9464px;line-height:1.25;font-family:sans-serif;text-align:center;text-anchor:middle;stroke-width:2.22366"
     x="37.464523"
     y="38.582466"
     id="text2"><tspan
       id="tspan2"
       x="37.464523"
       y="38.582466"
       style="stroke-width:2.22366" /></text><path
     stroke="currentColor"
     stroke-linecap="round"
     stroke-linejoin="round"
     stroke-width="4.44732"
     d="M 14.036911,28.787152 H 9.5895957 c -1.2280933,0 -2.2236576,0.995564 -2.2236576,2.223657 v 8.89463 c 0,1.228093 0.9955643,2.223657 2.2236576,2.223657 H 40.720799 c 1.228092,0 2.223658,-0.995564 2.223658,-2.223657 v -8.89463 c 0,-1.228093 -0.995566,-2.223657 -2.223658,-2.223657 h -4.447315 m 0,6.670971 h 0.02224"
     id="path1-2"
     style="fill:none;stroke:#1872f0;stroke-opacity:1;stroke-width:2;stroke-dasharray:none" /><path
     d="M 25.155197,9.2853853 V 29.298302 M 16.260568,18.180015 25.155197,7.0617277 34.049826,18.180015"
     style="fill:none;stroke:#1872f0;stroke-width:2;stroke-linecap:round;stroke-linejoin:round;stroke-opacity:1;stroke-dasharray:none"
     id="path1-9" /></svg>
